<?xml version="1.0" encoding="UTF-8" standalone="no"?>
<!DOCTYPE svg PUBLIC "-//W3C//DTD SVG 1.1//EN"
 "http://www.w3.org/Graphics/SVG/1.1/DTD/svg11.dtd">
<!-- Generated by graphviz version 2.40.1 (20161225.0304)
 -->
<!-- Title: Tree Pages: 1 -->
<svg width="919pt" height="723pt"
 viewBox="0.00 0.00 919.41 723.20" xmlns="http://www.w3.org/2000/svg" xmlns:xlink="http://www.w3.org/1999/xlink">
<g id="graph0" class="graph" transform="scale(1 1) rotate(0) translate(4 719.2)">
<title>Tree</title>
<polygon fill="#ffffff" stroke="transparent" points="-4,4 -4,-719.2 915.4053,-719.2 915.4053,4 -4,4"/>
<!-- 0 -->
<g id="node1" class="node">
<title>0</title>
<path fill="transparent" stroke="#000000" d="M432.4701,-715.2C432.4701,-715.2 282.6133,-715.2 282.6133,-715.2 276.6133,-715.2 270.6133,-709.2 270.6133,-703.2 270.6133,-703.2 270.6133,-635.2 270.6133,-635.2 270.6133,-629.2 276.6133,-623.2 282.6133,-623.2 282.6133,-623.2 432.4701,-623.2 432.4701,-623.2 438.4701,-623.2 444.4701,-629.2 444.4701,-635.2 444.4701,-635.2 444.4701,-703.2 444.4701,-703.2 444.4701,-709.2 438.4701,-715.2 432.4701,-715.2"/>
<text text-anchor="middle" x="357.5417" y="-698.6" font-family="Helvetica,sans-Serif" font-size="14.00" fill="#000000">petal width (cm) &lt;= 0.212</text>
<text text-anchor="middle" x="357.5417" y="-681.8" font-family="Helvetica,sans-Serif" font-size="14.00" fill="#000000">gini = 0.5</text>
<text text-anchor="middle" x="357.5417" y="-665" font-family="Helvetica,sans-Serif" font-size="14.00" fill="#000000">samples = 100</text>
<text text-anchor="middle" x="357.5417" y="-648.2" font-family="Helvetica,sans-Serif" font-size="14.00" fill="#000000">value = [50, 50]</text>
<text text-anchor="middle" x="357.5417" y="-631.4" font-family="Helvetica,sans-Serif" font-size="14.00" fill="#000000">class = setosa</text>
</g>
<!-- 1 -->
<g id="node2" class="node">
<title>1</title>
<path fill="#399de5" fill-opacity="0.866667" stroke="#000000" d="M336.6312,-587.2C336.6312,-587.2 182.4522,-587.2 182.4522,-587.2 176.4522,-587.2 170.4522,-581.2 170.4522,-575.2 170.4522,-575.2 170.4522,-507.2 170.4522,-507.2 170.4522,-501.2 176.4522,-495.2 182.4522,-495.2 182.4522,-495.2 336.6312,-495.2 336.6312,-495.2 342.6312,-495.2 348.6312,-501.2 348.6312,-507.2 348.6312,-507.2 348.6312,-575.2 348.6312,-575.2 348.6312,-581.2 342.6312,-587.2 336.6312,-587.2"/>
<text text-anchor="middle" x="259.5417" y="-570.6" font-family="Helvetica,sans-Serif" font-size="14.00" fill="#000000">petal width (cm) &lt;= &#45;0.265</text>
<text text-anchor="middle" x="259.5417" y="-553.8" font-family="Helvetica,sans-Serif" font-size="14.00" fill="#000000">gini = 0.21</text>
<text text-anchor="middle" x="259.5417" y="-537" font-family="Helvetica,sans-Serif" font-size="14.00" fill="#000000">samples = 42</text>
<text text-anchor="middle" x="259.5417" y="-520.2" font-family="Helvetica,sans-Serif" font-size="14.00" fill="#000000">value = [5, 37]</text>
<text text-anchor="middle" x="259.5417" y="-503.4" font-family="Helvetica,sans-Serif" font-size="14.00" fill="#000000">class = versicolor</text>
</g>
<!-- 0&#45;&gt;1 -->
<g id="edge1" class="edge">
<title>0&#45;&gt;1</title>
<path fill="none" stroke="#000000" d="M322.1615,-622.9891C315.2919,-614.0166 308.0344,-604.5375 300.9903,-595.3369"/>
<polygon fill="#000000" stroke="#000000" points="303.7282,-593.1555 294.87,-587.3431 298.1701,-597.4109 303.7282,-593.1555"/>
<text text-anchor="middle" x="291.5803" y="-607.9257" font-family="Helvetica,sans-Serif" font-size="14.00" fill="#000000">True</text>
</g>
<!-- 8 -->
<g id="node9" class="node">
<title>8</title>
<path fill="#e58139" fill-opacity="0.709804" stroke="#000000" d="M573.4291,-587.2C573.4291,-587.2 417.6543,-587.2 417.6543,-587.2 411.6543,-587.2 405.6543,-581.2 405.6543,-575.2 405.6543,-575.2 405.6543,-507.2 405.6543,-507.2 405.6543,-501.2 411.6543,-495.2 417.6543,-495.2 417.6543,-495.2 573.4291,-495.2 573.4291,-495.2 579.4291,-495.2 585.4291,-501.2 585.4291,-507.2 585.4291,-507.2 585.4291,-575.2 585.4291,-575.2 585.4291,-581.2 579.4291,-587.2 573.4291,-587.2"/>
<text text-anchor="middle" x="495.5417" y="-570.6" font-family="Helvetica,sans-Serif" font-size="14.00" fill="#000000">petal length (cm) &lt;= 1.166</text>
<text text-anchor="middle" x="495.5417" y="-553.8" font-family="Helvetica,sans-Serif" font-size="14.00" fill="#000000">gini = 0.348</text>
<text text-anchor="middle" x="495.5417" y="-537" font-family="Helvetica,sans-Serif" font-size="14.00" fill="#000000">samples = 58</text>
<text text-anchor="middle" x="495.5417" y="-520.2" font-family="Helvetica,sans-Serif" font-size="14.00" fill="#000000">value = [45, 13]</text>
<text text-anchor="middle" x="495.5417" y="-503.4" font-family="Helvetica,sans-Serif" font-size="14.00" fill="#000000">class = setosa</text>
</g>
<!-- 0&#45;&gt;8 -->
<g id="edge8" class="edge">
<title>0&#45;&gt;8</title>
<path fill="none" stroke="#000000" d="M407.3629,-622.9891C417.4271,-613.6541 428.0827,-603.7706 438.3761,-594.2231"/>
<polygon fill="#000000" stroke="#000000" points="440.8421,-596.7097 445.7937,-587.3431 436.0818,-591.5775 440.8421,-596.7097"/>
<text text-anchor="middle" x="444.8545" y="-608.1255" font-family="Helvetica,sans-Serif" font-size="14.00" fill="#000000">False</text>
</g>
<!-- 2 -->
<g id="node3" class="node">
<title>2</title>
<path fill="#399de5" stroke="#000000" d="M140.2692,-450.9003C140.2692,-450.9003 40.8142,-450.9003 40.8142,-450.9003 34.8142,-450.9003 28.8142,-444.9003 28.8142,-438.9003 28.8142,-438.9003 28.8142,-387.4997 28.8142,-387.4997 28.8142,-381.4997 34.8142,-375.4997 40.8142,-375.4997 40.8142,-375.4997 140.2692,-375.4997 140.2692,-375.4997 146.2692,-375.4997 152.2692,-381.4997 152.2692,-387.4997 152.2692,-387.4997 152.2692,-438.9003 152.2692,-438.9003 152.2692,-444.9003 146.2692,-450.9003 140.2692,-450.9003"/>
<text text-anchor="middle" x="90.5417" y="-434.2" font-family="Helvetica,sans-Serif" font-size="14.00" fill="#000000">gini = 0.0</text>
<text text-anchor="middle" x="90.5417" y="-417.4" font-family="Helvetica,sans-Serif" font-size="14.00" fill="#000000">samples = 23</text>
<text text-anchor="middle" x="90.5417" y="-400.6" font-family="Helvetica,sans-Serif" font-size="14.00" fill="#000000">value = [0, 23]</text>
<text text-anchor="middle" x="90.5417" y="-383.8" font-family="Helvetica,sans-Serif" font-size="14.00" fill="#000000">class = versicolor</text>
</g>
<!-- 1&#45;&gt;2 -->
<g id="edge2" class="edge">
<title>1&#45;&gt;2</title>
<path fill="none" stroke="#000000" d="M198.5288,-494.9891C182.2653,-482.6711 164.7408,-469.3981 148.6384,-457.2022"/>
<polygon fill="#000000" stroke="#000000" points="150.4465,-454.1811 140.3617,-450.9335 146.2201,-459.7613 150.4465,-454.1811"/>
</g>
<!-- 3 -->
<g id="node4" class="node">
<title>3</title>
<path fill="#399de5" fill-opacity="0.643137" stroke="#000000" d="M336.6312,-459.2C336.6312,-459.2 182.4522,-459.2 182.4522,-459.2 176.4522,-459.2 170.4522,-453.2 170.4522,-447.2 170.4522,-447.2 170.4522,-379.2 170.4522,-379.2 170.4522,-373.2 176.4522,-367.2 182.4522,-367.2 182.4522,-367.2 336.6312,-367.2 336.6312,-367.2 342.6312,-367.2 348.6312,-373.2 348.6312,-379.2 348.6312,-379.2 348.6312,-447.2 348.6312,-447.2 348.6312,-453.2 342.6312,-459.2 336.6312,-459.2"/>
<text text-anchor="middle" x="259.5417" y="-442.6" font-family="Helvetica,sans-Serif" font-size="14.00" fill="#000000">petal width (cm) &lt;= &#45;0.036</text>
<text text-anchor="middle" x="259.5417" y="-425.8" font-family="Helvetica,sans-Serif" font-size="14.00" fill="#000000">gini = 0.388</text>
<text text-anchor="middle" x="259.5417" y="-409" font-family="Helvetica,sans-Serif" font-size="14.00" fill="#000000">samples = 19</text>
<text text-anchor="middle" x="259.5417" y="-392.2" font-family="Helvetica,sans-Serif" font-size="14.00" fill="#000000">value = [5, 14]</text>
<text text-anchor="middle" x="259.5417" y="-375.4" font-family="Helvetica,sans-Serif" font-size="14.00" fill="#000000">class = versicolor</text>
</g>
<!-- 1&#45;&gt;3 -->
<g id="edge3" class="edge">
<title>1&#45;&gt;3</title>
<path fill="none" stroke="#000000" d="M259.5417,-494.9891C259.5417,-486.7417 259.5417,-478.0661 259.5417,-469.5724"/>
<polygon fill="#000000" stroke="#000000" points="263.0418,-469.3431 259.5417,-459.3431 256.0418,-469.3431 263.0418,-469.3431"/>
</g>
<!-- 4 -->
<g id="node5" class="node">
<title>4</title>
<path fill="#399de5" fill-opacity="0.164706" stroke="#000000" d="M167.3636,-331.2C167.3636,-331.2 27.7198,-331.2 27.7198,-331.2 21.7198,-331.2 15.7198,-325.2 15.7198,-319.2 15.7198,-319.2 15.7198,-251.2 15.7198,-251.2 15.7198,-245.2 21.7198,-239.2 27.7198,-239.2 27.7198,-239.2 167.3636,-239.2 167.3636,-239.2 173.3636,-239.2 179.3636,-245.2 179.3636,-251.2 179.3636,-251.2 179.3636,-319.2 179.3636,-319.2 179.3636,-325.2 173.3636,-331.2 167.3636,-331.2"/>
<text text-anchor="middle" x="97.5417" y="-314.6" font-family="Helvetica,sans-Serif" font-size="14.00" fill="#000000">petal length (cm) &lt;= 0.2</text>
<text text-anchor="middle" x="97.5417" y="-297.8" font-family="Helvetica,sans-Serif" font-size="14.00" fill="#000000">gini = 0.496</text>
<text text-anchor="middle" x="97.5417" y="-281" font-family="Helvetica,sans-Serif" font-size="14.00" fill="#000000">samples = 11</text>
<text text-anchor="middle" x="97.5417" y="-264.2" font-family="Helvetica,sans-Serif" font-size="14.00" fill="#000000">value = [5, 6]</text>
<text text-anchor="middle" x="97.5417" y="-247.4" font-family="Helvetica,sans-Serif" font-size="14.00" fill="#000000">class = versicolor</text>
</g>
<!-- 3&#45;&gt;4 -->
<g id="edge4" class="edge">
<title>3&#45;&gt;4</title>
<path fill="none" stroke="#000000" d="M201.056,-366.9891C189.012,-357.4728 176.2466,-347.3866 163.9457,-337.6674"/>
<polygon fill="#000000" stroke="#000000" points="165.9578,-334.7965 155.9416,-331.3431 161.6181,-340.289 165.9578,-334.7965"/>
</g>
<!-- 7 -->
<g id="node8" class="node">
<title>7</title>
<path fill="#399de5" stroke="#000000" d="M309.2692,-322.9003C309.2692,-322.9003 209.8142,-322.9003 209.8142,-322.9003 203.8142,-322.9003 197.8142,-316.9003 197.8142,-310.9003 197.8142,-310.9003 197.8142,-259.4997 197.8142,-259.4997 197.8142,-253.4997 203.8142,-247.4997 209.8142,-247.4997 209.8142,-247.4997 309.2692,-247.4997 309.2692,-247.4997 315.2692,-247.4997 321.2692,-253.4997 321.2692,-259.4997 321.2692,-259.4997 321.2692,-310.9003 321.2692,-310.9003 321.2692,-316.9003 315.2692,-322.9003 309.2692,-322.9003"/>
<text text-anchor="middle" x="259.5417" y="-306.2" font-family="Helvetica,sans-Serif" font-size="14.00" fill="#000000">gini = 0.0</text>
<text text-anchor="middle" x="259.5417" y="-289.4" font-family="Helvetica,sans-Serif" font-size="14.00" fill="#000000">samples = 8</text>
<text text-anchor="middle" x="259.5417" y="-272.6" font-family="Helvetica,sans-Serif" font-size="14.00" fill="#000000">value = [0, 8]</text>
<text text-anchor="middle" x="259.5417" y="-255.8" font-family="Helvetica,sans-Serif" font-size="14.00" fill="#000000">class = versicolor</text>
</g>
<!-- 3&#45;&gt;7 -->
<g id="edge7" class="edge">
<title>3&#45;&gt;7</title>
<path fill="none" stroke="#000000" d="M259.5417,-366.9891C259.5417,-356.0272 259.5417,-344.309 259.5417,-333.2667"/>
<polygon fill="#000000" stroke="#000000" points="263.0418,-332.9335 259.5417,-322.9335 256.0418,-332.9335 263.0418,-332.9335"/>
</g>
<!-- 5 -->
<g id="node6" class="node">
<title>5</title>
<path fill="#e58139" fill-opacity="0.666667" stroke="#000000" d="M93.1251,-194.9003C93.1251,-194.9003 11.9583,-194.9003 11.9583,-194.9003 5.9583,-194.9003 -.0417,-188.9003 -.0417,-182.9003 -.0417,-182.9003 -.0417,-131.4997 -.0417,-131.4997 -.0417,-125.4997 5.9583,-119.4997 11.9583,-119.4997 11.9583,-119.4997 93.1251,-119.4997 93.1251,-119.4997 99.1251,-119.4997 105.1251,-125.4997 105.1251,-131.4997 105.1251,-131.4997 105.1251,-182.9003 105.1251,-182.9003 105.1251,-188.9003 99.1251,-194.9003 93.1251,-194.9003"/>
<text text-anchor="middle" x="52.5417" y="-178.2" font-family="Helvetica,sans-Serif" font-size="14.00" fill="#000000">gini = 0.375</text>
<text text-anchor="middle" x="52.5417" y="-161.4" font-family="Helvetica,sans-Serif" font-size="14.00" fill="#000000">samples = 4</text>
<text text-anchor="middle" x="52.5417" y="-144.6" font-family="Helvetica,sans-Serif" font-size="14.00" fill="#000000">value = [3, 1]</text>
<text text-anchor="middle" x="52.5417" y="-127.8" font-family="Helvetica,sans-Serif" font-size="14.00" fill="#000000">class = setosa</text>
</g>
<!-- 4&#45;&gt;5 -->
<g id="edge5" class="edge">
<title>4&#45;&gt;5</title>
<path fill="none" stroke="#000000" d="M81.2957,-238.9891C77.3624,-227.8012 73.1522,-215.8255 69.2003,-204.5845"/>
<polygon fill="#000000" stroke="#000000" points="72.426,-203.2066 65.8074,-194.9335 65.8222,-205.5283 72.426,-203.2066"/>
</g>
<!-- 6 -->
<g id="node7" class="node">
<title>6</title>
<path fill="#399de5" fill-opacity="0.600000" stroke="#000000" d="M234.2692,-194.9003C234.2692,-194.9003 134.8142,-194.9003 134.8142,-194.9003 128.8142,-194.9003 122.8142,-188.9003 122.8142,-182.9003 122.8142,-182.9003 122.8142,-131.4997 122.8142,-131.4997 122.8142,-125.4997 128.8142,-119.4997 134.8142,-119.4997 134.8142,-119.4997 234.2692,-119.4997 234.2692,-119.4997 240.2692,-119.4997 246.2692,-125.4997 246.2692,-131.4997 246.2692,-131.4997 246.2692,-182.9003 246.2692,-182.9003 246.2692,-188.9003 240.2692,-194.9003 234.2692,-194.9003"/>
<text text-anchor="middle" x="184.5417" y="-178.2" font-family="Helvetica,sans-Serif" font-size="14.00" fill="#000000">gini = 0.408</text>
<text text-anchor="middle" x="184.5417" y="-161.4" font-family="Helvetica,sans-Serif" font-size="14.00" fill="#000000">samples = 7</text>
<text text-anchor="middle" x="184.5417" y="-144.6" font-family="Helvetica,sans-Serif" font-size="14.00" fill="#000000">value = [2, 5]</text>
<text text-anchor="middle" x="184.5417" y="-127.8" font-family="Helvetica,sans-Serif" font-size="14.00" fill="#000000">class = versicolor</text>
</g>
<!-- 4&#45;&gt;6 -->
<g id="edge6" class="edge">
<title>4&#45;&gt;6</title>
<path fill="none" stroke="#000000" d="M128.9507,-238.9891C136.8622,-227.3492 145.3533,-214.8565 153.2586,-203.2257"/>
<polygon fill="#000000" stroke="#000000" points="156.168,-205.1715 158.8947,-194.9335 150.3787,-201.2365 156.168,-205.1715"/>
</g>
<!-- 9 -->
<g id="node10" class="node">
<title>9</title>
<path fill="#e58139" fill-opacity="0.882353" stroke="#000000" d="M566.6876,-459.2C566.6876,-459.2 424.3958,-459.2 424.3958,-459.2 418.3958,-459.2 412.3958,-453.2 412.3958,-447.2 412.3958,-447.2 412.3958,-379.2 412.3958,-379.2 412.3958,-373.2 418.3958,-367.2 424.3958,-367.2 424.3958,-367.2 566.6876,-367.2 566.6876,-367.2 572.6876,-367.2 578.6876,-373.2 578.6876,-379.2 578.6876,-379.2 578.6876,-447.2 578.6876,-447.2 578.6876,-453.2 572.6876,-459.2 566.6876,-459.2"/>
<text text-anchor="middle" x="495.5417" y="-442.6" font-family="Helvetica,sans-Serif" font-size="14.00" fill="#000000">petal width (cm) &lt;= 0.58</text>
<text text-anchor="middle" x="495.5417" y="-425.8" font-family="Helvetica,sans-Serif" font-size="14.00" fill="#000000">gini = 0.19</text>
<text text-anchor="middle" x="495.5417" y="-409" font-family="Helvetica,sans-Serif" font-size="14.00" fill="#000000">samples = 47</text>
<text text-anchor="middle" x="495.5417" y="-392.2" font-family="Helvetica,sans-Serif" font-size="14.00" fill="#000000">value = [42, 5]</text>
<text text-anchor="middle" x="495.5417" y="-375.4" font-family="Helvetica,sans-Serif" font-size="14.00" fill="#000000">class = setosa</text>
</g>
<!-- 8&#45;&gt;9 -->
<g id="edge9" class="edge">
<title>8&#45;&gt;9</title>
<path fill="none" stroke="#000000" d="M495.5417,-494.9891C495.5417,-486.7417 495.5417,-478.0661 495.5417,-469.5724"/>
<polygon fill="#000000" stroke="#000000" points="499.0418,-469.3431 495.5417,-459.3431 492.0418,-469.3431 499.0418,-469.3431"/>
</g>
<!-- 16 -->
<g id="node17" class="node">
<title>16</title>
<path fill="#399de5" fill-opacity="0.623529" stroke="#000000" d="M787.3636,-459.2C787.3636,-459.2 647.7198,-459.2 647.7198,-459.2 641.7198,-459.2 635.7198,-453.2 635.7198,-447.2 635.7198,-447.2 635.7198,-379.2 635.7198,-379.2 635.7198,-373.2 641.7198,-367.2 647.7198,-367.2 647.7198,-367.2 787.3636,-367.2 787.3636,-367.2 793.3636,-367.2 799.3636,-373.2 799.3636,-379.2 799.3636,-379.2 799.3636,-447.2 799.3636,-447.2 799.3636,-453.2 793.3636,-459.2 787.3636,-459.2"/>
<text text-anchor="middle" x="717.5417" y="-442.6" font-family="Helvetica,sans-Serif" font-size="14.00" fill="#000000">petal length (cm) &lt;= 1.9</text>
<text text-anchor="middle" x="717.5417" y="-425.8" font-family="Helvetica,sans-Serif" font-size="14.00" fill="#000000">gini = 0.397</text>
<text text-anchor="middle" x="717.5417" y="-409" font-family="Helvetica,sans-Serif" font-size="14.00" fill="#000000">samples = 11</text>
<text text-anchor="middle" x="717.5417" y="-392.2" font-family="Helvetica,sans-Serif" font-size="14.00" fill="#000000">value = [3, 8]</text>
<text text-anchor="middle" x="717.5417" y="-375.4" font-family="Helvetica,sans-Serif" font-size="14.00" fill="#000000">class = versicolor</text>
</g>
<!-- 8&#45;&gt;16 -->
<g id="edge16" class="edge">
<title>8&#45;&gt;16</title>
<path fill="none" stroke="#000000" d="M575.3752,-495.1699C592.6296,-485.2214 610.9773,-474.6425 628.5574,-464.5062"/>
<polygon fill="#000000" stroke="#000000" points="630.756,-467.2788 637.6709,-459.2516 627.2595,-461.2145 630.756,-467.2788"/>
</g>
<!-- 10 -->
<g id="node11" class="node">
<title>10</title>
<path fill="#e58139" fill-opacity="0.545098" stroke="#000000" d="M511.5893,-331.2C511.5893,-331.2 351.4941,-331.2 351.4941,-331.2 345.4941,-331.2 339.4941,-325.2 339.4941,-319.2 339.4941,-319.2 339.4941,-251.2 339.4941,-251.2 339.4941,-245.2 345.4941,-239.2 351.4941,-239.2 351.4941,-239.2 511.5893,-239.2 511.5893,-239.2 517.5893,-239.2 523.5893,-245.2 523.5893,-251.2 523.5893,-251.2 523.5893,-319.2 523.5893,-319.2 523.5893,-325.2 517.5893,-331.2 511.5893,-331.2"/>
<text text-anchor="middle" x="431.5417" y="-314.6" font-family="Helvetica,sans-Serif" font-size="14.00" fill="#000000">petal length (cm) &lt;= &#45;0.285</text>
<text text-anchor="middle" x="431.5417" y="-297.8" font-family="Helvetica,sans-Serif" font-size="14.00" fill="#000000">gini = 0.43</text>
<text text-anchor="middle" x="431.5417" y="-281" font-family="Helvetica,sans-Serif" font-size="14.00" fill="#000000">samples = 16</text>
<text text-anchor="middle" x="431.5417" y="-264.2" font-family="Helvetica,sans-Serif" font-size="14.00" fill="#000000">value = [11, 5]</text>
<text text-anchor="middle" x="431.5417" y="-247.4" font-family="Helvetica,sans-Serif" font-size="14.00" fill="#000000">class = setosa</text>
</g>
<!-- 9&#45;&gt;10 -->
<g id="edge10" class="edge">
<title>9&#45;&gt;10</title>
<path fill="none" stroke="#000000" d="M472.4362,-366.9891C468.1313,-358.3791 463.593,-349.3026 459.1684,-340.4535"/>
<polygon fill="#000000" stroke="#000000" points="462.2159,-338.7221 454.6133,-331.3431 455.9549,-341.8527 462.2159,-338.7221"/>
</g>
<!-- 15 -->
<g id="node16" class="node">
<title>15</title>
<path fill="#e58139" stroke="#000000" d="M635.1251,-322.9003C635.1251,-322.9003 553.9583,-322.9003 553.9583,-322.9003 547.9583,-322.9003 541.9583,-316.9003 541.9583,-310.9003 541.9583,-310.9003 541.9583,-259.4997 541.9583,-259.4997 541.9583,-253.4997 547.9583,-247.4997 553.9583,-247.4997 553.9583,-247.4997 635.1251,-247.4997 635.1251,-247.4997 641.1251,-247.4997 647.1251,-253.4997 647.1251,-259.4997 647.1251,-259.4997 647.1251,-310.9003 647.1251,-310.9003 647.1251,-316.9003 641.1251,-322.9003 635.1251,-322.9003"/>
<text text-anchor="middle" x="594.5417" y="-306.2" font-family="Helvetica,sans-Serif" font-size="14.00" fill="#000000">gini = 0.0</text>
<text text-anchor="middle" x="594.5417" y="-289.4" font-family="Helvetica,sans-Serif" font-size="14.00" fill="#000000">samples = 31</text>
<text text-anchor="middle" x="594.5417" y="-272.6" font-family="Helvetica,sans-Serif" font-size="14.00" fill="#000000">value = [31, 0]</text>
<text text-anchor="middle" x="594.5417" y="-255.8" font-family="Helvetica,sans-Serif" font-size="14.00" fill="#000000">class = setosa</text>
</g>
<!-- 9&#45;&gt;15 -->
<g id="edge15" class="edge">
<title>9&#45;&gt;15</title>
<path fill="none" stroke="#000000" d="M531.283,-366.9891C540.3731,-355.2362 550.1357,-342.6138 559.2055,-330.8872"/>
<polygon fill="#000000" stroke="#000000" points="562.0077,-332.985 565.3572,-322.9335 556.4706,-328.7023 562.0077,-332.985"/>
</g>
<!-- 11 -->
<g id="node12" class="node">
<title>11</title>
<path fill="#e58139" stroke="#000000" d="M414.1251,-194.9003C414.1251,-194.9003 332.9583,-194.9003 332.9583,-194.9003 326.9583,-194.9003 320.9583,-188.9003 320.9583,-182.9003 320.9583,-182.9003 320.9583,-131.4997 320.9583,-131.4997 320.9583,-125.4997 326.9583,-119.4997 332.9583,-119.4997 332.9583,-119.4997 414.1251,-119.4997 414.1251,-119.4997 420.1251,-119.4997 426.1251,-125.4997 426.1251,-131.4997 426.1251,-131.4997 426.1251,-182.9003 426.1251,-182.9003 426.1251,-188.9003 420.1251,-194.9003 414.1251,-194.9003"/>
<text text-anchor="middle" x="373.5417" y="-178.2" font-family="Helvetica,sans-Serif" font-size="14.00" fill="#000000">gini = 0.0</text>
<text text-anchor="middle" x="373.5417" y="-161.4" font-family="Helvetica,sans-Serif" font-size="14.00" fill="#000000">samples = 6</text>
<text text-anchor="middle" x="373.5417" y="-144.6" font-family="Helvetica,sans-Serif" font-size="14.00" fill="#000000">value = [6, 0]</text>
<text text-anchor="middle" x="373.5417" y="-127.8" font-family="Helvetica,sans-Serif" font-size="14.00" fill="#000000">class = setosa</text>
</g>
<!-- 10&#45;&gt;11 -->
<g id="edge11" class="edge">
<title>10&#45;&gt;11</title>
<path fill="none" stroke="#000000" d="M410.6024,-238.9891C405.4817,-227.6882 399.9967,-215.5835 394.8586,-204.2441"/>
<polygon fill="#000000" stroke="#000000" points="397.955,-202.5975 390.6397,-194.9335 391.5791,-205.4866 397.955,-202.5975"/>
</g>
<!-- 12 -->
<g id="node13" class="node">
<title>12</title>
<path fill="transparent" stroke="#000000" d="M611.4291,-203.2C611.4291,-203.2 455.6543,-203.2 455.6543,-203.2 449.6543,-203.2 443.6543,-197.2 443.6543,-191.2 443.6543,-191.2 443.6543,-123.2 443.6543,-123.2 443.6543,-117.2 449.6543,-111.2 455.6543,-111.2 455.6543,-111.2 611.4291,-111.2 611.4291,-111.2 617.4291,-111.2 623.4291,-117.2 623.4291,-123.2 623.4291,-123.2 623.4291,-191.2 623.4291,-191.2 623.4291,-197.2 617.4291,-203.2 611.4291,-203.2"/>
<text text-anchor="middle" x="533.5417" y="-186.6" font-family="Helvetica,sans-Serif" font-size="14.00" fill="#000000">petal length (cm) &lt;= 0.164</text>
<text text-anchor="middle" x="533.5417" y="-169.8" font-family="Helvetica,sans-Serif" font-size="14.00" fill="#000000">gini = 0.5</text>
<text text-anchor="middle" x="533.5417" y="-153" font-family="Helvetica,sans-Serif" font-size="14.00" fill="#000000">samples = 10</text>
<text text-anchor="middle" x="533.5417" y="-136.2" font-family="Helvetica,sans-Serif" font-size="14.00" fill="#000000">value = [5, 5]</text>
<text text-anchor="middle" x="533.5417" y="-119.4" font-family="Helvetica,sans-Serif" font-size="14.00" fill="#000000">class = setosa</text>
</g>
<!-- 10&#45;&gt;12 -->
<g id="edge12" class="edge">
<title>10&#45;&gt;12</title>
<path fill="none" stroke="#000000" d="M468.366,-238.9891C475.516,-230.0166 483.0697,-220.5375 490.4013,-211.3369"/>
<polygon fill="#000000" stroke="#000000" points="493.2766,-213.3449 496.7714,-203.3431 487.8021,-208.9825 493.2766,-213.3449"/>
</g>
<!-- 13 -->
<g id="node14" class="node">
<title>13</title>
<path fill="#399de5" stroke="#000000" d="M517.2692,-75.3003C517.2692,-75.3003 417.8142,-75.3003 417.8142,-75.3003 411.8142,-75.3003 405.8142,-69.3003 405.8142,-63.3003 405.8142,-63.3003 405.8142,-11.8997 405.8142,-11.8997 405.8142,-5.8997 411.8142,.1003 417.8142,.1003 417.8142,.1003 517.2692,.1003 517.2692,.1003 523.2692,.1003 529.2692,-5.8997 529.2692,-11.8997 529.2692,-11.8997 529.2692,-63.3003 529.2692,-63.3003 529.2692,-69.3003 523.2692,-75.3003 517.2692,-75.3003"/>
<text text-anchor="middle" x="467.5417" y="-58.6" font-family="Helvetica,sans-Serif" font-size="14.00" fill="#000000">gini = 0.0</text>
<text text-anchor="middle" x="467.5417" y="-41.8" font-family="Helvetica,sans-Serif" font-size="14.00" fill="#000000">samples = 4</text>
<text text-anchor="middle" x="467.5417" y="-25" font-family="Helvetica,sans-Serif" font-size="14.00" fill="#000000">value = [0, 4]</text>
<text text-anchor="middle" x="467.5417" y="-8.2" font-family="Helvetica,sans-Serif" font-size="14.00" fill="#000000">class = versicolor</text>
</g>
<!-- 12&#45;&gt;13 -->
<g id="edge13" class="edge">
<title>12&#45;&gt;13</title>
<path fill="none" stroke="#000000" d="M508.0244,-110.9595C503.1784,-102.178 498.1051,-92.9846 493.2531,-84.1922"/>
<polygon fill="#000000" stroke="#000000" points="496.1917,-82.2731 488.2957,-75.2088 490.063,-85.6552 496.1917,-82.2731"/>
</g>
<!-- 14 -->
<g id="node15" class="node">
<title>14</title>
<path fill="#e58139" fill-opacity="0.800000" stroke="#000000" d="M640.1251,-75.3003C640.1251,-75.3003 558.9583,-75.3003 558.9583,-75.3003 552.9583,-75.3003 546.9583,-69.3003 546.9583,-63.3003 546.9583,-63.3003 546.9583,-11.8997 546.9583,-11.8997 546.9583,-5.8997 552.9583,.1003 558.9583,.1003 558.9583,.1003 640.1251,.1003 640.1251,.1003 646.1251,.1003 652.1251,-5.8997 652.1251,-11.8997 652.1251,-11.8997 652.1251,-63.3003 652.1251,-63.3003 652.1251,-69.3003 646.1251,-75.3003 640.1251,-75.3003"/>
<text text-anchor="middle" x="599.5417" y="-58.6" font-family="Helvetica,sans-Serif" font-size="14.00" fill="#000000">gini = 0.278</text>
<text text-anchor="middle" x="599.5417" y="-41.8" font-family="Helvetica,sans-Serif" font-size="14.00" fill="#000000">samples = 6</text>
<text text-anchor="middle" x="599.5417" y="-25" font-family="Helvetica,sans-Serif" font-size="14.00" fill="#000000">value = [5, 1]</text>
<text text-anchor="middle" x="599.5417" y="-8.2" font-family="Helvetica,sans-Serif" font-size="14.00" fill="#000000">class = setosa</text>
</g>
<!-- 12&#45;&gt;14 -->
<g id="edge14" class="edge">
<title>12&#45;&gt;14</title>
<path fill="none" stroke="#000000" d="M559.059,-110.9595C563.905,-102.178 568.9783,-92.9846 573.8303,-84.1922"/>
<polygon fill="#000000" stroke="#000000" points="577.0204,-85.6552 578.7877,-75.2088 570.8917,-82.2731 577.0204,-85.6552"/>
</g>
<!-- 17 -->
<g id="node18" class="node">
<title>17</title>
<path fill="transparent" stroke="#000000" d="M758.1251,-322.9003C758.1251,-322.9003 676.9583,-322.9003 676.9583,-322.9003 670.9583,-322.9003 664.9583,-316.9003 664.9583,-310.9003 664.9583,-310.9003 664.9583,-259.4997 664.9583,-259.4997 664.9583,-253.4997 670.9583,-247.4997 676.9583,-247.4997 676.9583,-247.4997 758.1251,-247.4997 758.1251,-247.4997 764.1251,-247.4997 770.1251,-253.4997 770.1251,-259.4997 770.1251,-259.4997 770.1251,-310.9003 770.1251,-310.9003 770.1251,-316.9003 764.1251,-322.9003 758.1251,-322.9003"/>
<text text-anchor="middle" x="717.5417" y="-306.2" font-family="Helvetica,sans-Serif" font-size="14.00" fill="#000000">gini = 0.5</text>
<text text-anchor="middle" x="717.5417" y="-289.4" font-family="Helvetica,sans-Serif" font-size="14.00" fill="#000000">samples = 6</text>
<text text-anchor="middle" x="717.5417" y="-272.6" font-family="Helvetica,sans-Serif" font-size="14.00" fill="#000000">value = [3, 3]</text>
<text text-anchor="middle" x="717.5417" y="-255.8" font-family="Helvetica,sans-Serif" font-size="14.00" fill="#000000">class = setosa</text>
</g>
<!-- 16&#45;&gt;17 -->
<g id="edge17" class="edge">
<title>16&#45;&gt;17</title>
<path fill="none" stroke="#000000" d="M717.5417,-366.9891C717.5417,-356.0272 717.5417,-344.309 717.5417,-333.2667"/>
<polygon fill="#000000" stroke="#000000" points="721.0418,-332.9335 717.5417,-322.9335 714.0418,-332.9335 721.0418,-332.9335"/>
</g>
<!-- 18 -->
<g id="node19" class="node">
<title>18</title>
<path fill="#399de5" stroke="#000000" d="M899.2692,-322.9003C899.2692,-322.9003 799.8142,-322.9003 799.8142,-322.9003 793.8142,-322.9003 787.8142,-316.9003 787.8142,-310.9003 787.8142,-310.9003 787.8142,-259.4997 787.8142,-259.4997 787.8142,-253.4997 793.8142,-247.4997 799.8142,-247.4997 799.8142,-247.4997 899.2692,-247.4997 899.2692,-247.4997 905.2692,-247.4997 911.2692,-253.4997 911.2692,-259.4997 911.2692,-259.4997 911.2692,-310.9003 911.2692,-310.9003 911.2692,-316.9003 905.2692,-322.9003 899.2692,-322.9003"/>
<text text-anchor="middle" x="849.5417" y="-306.2" font-family="Helvetica,sans-Serif" font-size="14.00" fill="#000000">gini = 0.0</text>
<text text-anchor="middle" x="849.5417" y="-289.4" font-family="Helvetica,sans-Serif" font-size="14.00" fill="#000000">samples = 5</text>
<text text-anchor="middle" x="849.5417" y="-272.6" font-family="Helvetica,sans-Serif" font-size="14.00" fill="#000000">value = [0, 5]</text>
<text text-anchor="middle" x="849.5417" y="-255.8" font-family="Helvetica,sans-Serif" font-size="14.00" fill="#000000">class = versicolor</text>
</g>
<!-- 16&#45;&gt;18 -->
<g id="edge18" class="edge">
<title>16&#45;&gt;18</title>
<path fill="none" stroke="#000000" d="M765.1967,-366.9891C777.55,-355.0101 790.8347,-342.128 803.1234,-330.2116"/>
<polygon fill="#000000" stroke="#000000" points="805.8865,-332.4076 810.629,-322.9335 801.0135,-327.3823 805.8865,-332.4076"/>
</g>
</g>
</svg>
