<?xml version="1.0" encoding="UTF-8" standalone="no"?>
<!DOCTYPE svg PUBLIC "-//W3C//DTD SVG 1.1//EN"
 "http://www.w3.org/Graphics/SVG/1.1/DTD/svg11.dtd">
<!-- Generated by graphviz version 2.40.1 (20161225.0304)
 -->
<!-- Title: Tree Pages: 1 -->
<svg width="522pt" height="289pt"
 viewBox="0.00 0.00 522.20 288.80" xmlns="http://www.w3.org/2000/svg" xmlns:xlink="http://www.w3.org/1999/xlink">
<g id="graph0" class="graph" transform="scale(1 1) rotate(0) translate(4 284.8)">
<title>Tree</title>
<polygon fill="#ffffff" stroke="transparent" points="-4,4 -4,-284.8 518.2012,-284.8 518.2012,4 -4,4"/>
<!-- 0 -->
<g id="node1" class="node">
<title>0</title>
<path fill="#e58139" fill-opacity="0.494118" stroke="#000000" d="M302.302,-280.9003C302.302,-280.9003 210.8992,-280.9003 210.8992,-280.9003 204.8992,-280.9003 198.8992,-274.9003 198.8992,-268.9003 198.8992,-268.9003 198.8992,-217.4997 198.8992,-217.4997 198.8992,-211.4997 204.8992,-205.4997 210.8992,-205.4997 210.8992,-205.4997 302.302,-205.4997 302.302,-205.4997 308.302,-205.4997 314.302,-211.4997 314.302,-217.4997 314.302,-217.4997 314.302,-268.9003 314.302,-268.9003 314.302,-274.9003 308.302,-280.9003 302.302,-280.9003"/>
<text text-anchor="middle" x="256.6006" y="-264.2" font-family="Helvetica,sans-Serif" font-size="14.00" fill="#000000">x1 &lt;= &#45;0.038</text>
<text text-anchor="middle" x="256.6006" y="-247.4" font-family="Helvetica,sans-Serif" font-size="14.00" fill="#000000">mse = 0.444</text>
<text text-anchor="middle" x="256.6006" y="-230.6" font-family="Helvetica,sans-Serif" font-size="14.00" fill="#000000">samples = 7500</text>
<text text-anchor="middle" x="256.6006" y="-213.8" font-family="Helvetica,sans-Serif" font-size="14.00" fill="#000000">value = 0.997</text>
</g>
<!-- 1 -->
<g id="node2" class="node">
<title>1</title>
<path fill="#e58139" fill-opacity="0.145098" stroke="#000000" d="M236.302,-169.7003C236.302,-169.7003 144.8992,-169.7003 144.8992,-169.7003 138.8992,-169.7003 132.8992,-163.7003 132.8992,-157.7003 132.8992,-157.7003 132.8992,-106.2997 132.8992,-106.2997 132.8992,-100.2997 138.8992,-94.2997 144.8992,-94.2997 144.8992,-94.2997 236.302,-94.2997 236.302,-94.2997 242.302,-94.2997 248.302,-100.2997 248.302,-106.2997 248.302,-106.2997 248.302,-157.7003 248.302,-157.7003 248.302,-163.7003 242.302,-169.7003 236.302,-169.7003"/>
<text text-anchor="middle" x="190.6006" y="-153" font-family="Helvetica,sans-Serif" font-size="14.00" fill="#000000">x2 &lt;= 0.115</text>
<text text-anchor="middle" x="190.6006" y="-136.2" font-family="Helvetica,sans-Serif" font-size="14.00" fill="#000000">mse = 0.18</text>
<text text-anchor="middle" x="190.6006" y="-119.4" font-family="Helvetica,sans-Serif" font-size="14.00" fill="#000000">samples = 3679</text>
<text text-anchor="middle" x="190.6006" y="-102.6" font-family="Helvetica,sans-Serif" font-size="14.00" fill="#000000">value = 0.481</text>
</g>
<!-- 0&#45;&gt;1 -->
<g id="edge1" class="edge">
<title>0&#45;&gt;1</title>
<path fill="none" stroke="#000000" d="M234.256,-205.5528C229.0953,-196.8577 223.545,-187.5064 218.1902,-178.4843"/>
<polygon fill="#000000" stroke="#000000" points="221.036,-176.4215 212.9222,-169.6085 215.0164,-179.9943 221.036,-176.4215"/>
<text text-anchor="middle" x="206.7431" y="-189.6328" font-family="Helvetica,sans-Serif" font-size="14.00" fill="#000000">True</text>
</g>
<!-- 4 -->
<g id="node5" class="node">
<title>4</title>
<path fill="#e58139" fill-opacity="0.827451" stroke="#000000" d="M369.302,-169.7003C369.302,-169.7003 277.8992,-169.7003 277.8992,-169.7003 271.8992,-169.7003 265.8992,-163.7003 265.8992,-157.7003 265.8992,-157.7003 265.8992,-106.2997 265.8992,-106.2997 265.8992,-100.2997 271.8992,-94.2997 277.8992,-94.2997 277.8992,-94.2997 369.302,-94.2997 369.302,-94.2997 375.302,-94.2997 381.302,-100.2997 381.302,-106.2997 381.302,-106.2997 381.302,-157.7003 381.302,-157.7003 381.302,-163.7003 375.302,-169.7003 369.302,-169.7003"/>
<text text-anchor="middle" x="323.6006" y="-153" font-family="Helvetica,sans-Serif" font-size="14.00" fill="#000000">x1 &lt;= 0.473</text>
<text text-anchor="middle" x="323.6006" y="-136.2" font-family="Helvetica,sans-Serif" font-size="14.00" fill="#000000">mse = 0.195</text>
<text text-anchor="middle" x="323.6006" y="-119.4" font-family="Helvetica,sans-Serif" font-size="14.00" fill="#000000">samples = 3821</text>
<text text-anchor="middle" x="323.6006" y="-102.6" font-family="Helvetica,sans-Serif" font-size="14.00" fill="#000000">value = 1.494</text>
</g>
<!-- 0&#45;&gt;4 -->
<g id="edge4" class="edge">
<title>0&#45;&gt;4</title>
<path fill="none" stroke="#000000" d="M279.2837,-205.5528C284.5773,-196.7671 290.2744,-187.3115 295.7628,-178.2025"/>
<polygon fill="#000000" stroke="#000000" points="298.7779,-179.9802 300.9408,-169.6085 292.7821,-176.3676 298.7779,-179.9802"/>
<text text-anchor="middle" x="306.9593" y="-189.6732" font-family="Helvetica,sans-Serif" font-size="14.00" fill="#000000">False</text>
</g>
<!-- 2 -->
<g id="node3" class="node">
<title>2</title>
<path fill="transparent" stroke="#000000" d="M103.302,-58.6014C103.302,-58.6014 11.8992,-58.6014 11.8992,-58.6014 5.8992,-58.6014 -.1008,-52.6014 -.1008,-46.6014 -.1008,-46.6014 -.1008,-11.7986 -.1008,-11.7986 -.1008,-5.7986 5.8992,.2014 11.8992,.2014 11.8992,.2014 103.302,.2014 103.302,.2014 109.302,.2014 115.302,-5.7986 115.302,-11.7986 115.302,-11.7986 115.302,-46.6014 115.302,-46.6014 115.302,-52.6014 109.302,-58.6014 103.302,-58.6014"/>
<text text-anchor="middle" x="57.6006" y="-41.8" font-family="Helvetica,sans-Serif" font-size="14.00" fill="#000000">mse = 0.125</text>
<text text-anchor="middle" x="57.6006" y="-25" font-family="Helvetica,sans-Serif" font-size="14.00" fill="#000000">samples = 2077</text>
<text text-anchor="middle" x="57.6006" y="-8.2" font-family="Helvetica,sans-Serif" font-size="14.00" fill="#000000">value = 0.267</text>
</g>
<!-- 1&#45;&gt;2 -->
<g id="edge2" class="edge">
<title>1&#45;&gt;2</title>
<path fill="none" stroke="#000000" d="M141.8315,-94.3048C129.3035,-84.6215 115.8698,-74.2382 103.4929,-64.6717"/>
<polygon fill="#000000" stroke="#000000" points="105.5848,-61.8649 95.5323,-58.5186 101.3039,-67.4034 105.5848,-61.8649"/>
</g>
<!-- 3 -->
<g id="node4" class="node">
<title>3</title>
<path fill="#e58139" fill-opacity="0.333333" stroke="#000000" d="M236.302,-58.6014C236.302,-58.6014 144.8992,-58.6014 144.8992,-58.6014 138.8992,-58.6014 132.8992,-52.6014 132.8992,-46.6014 132.8992,-46.6014 132.8992,-11.7986 132.8992,-11.7986 132.8992,-5.7986 138.8992,.2014 144.8992,.2014 144.8992,.2014 236.302,.2014 236.302,.2014 242.302,.2014 248.302,-5.7986 248.302,-11.7986 248.302,-11.7986 248.302,-46.6014 248.302,-46.6014 248.302,-52.6014 242.302,-58.6014 236.302,-58.6014"/>
<text text-anchor="middle" x="190.6006" y="-41.8" font-family="Helvetica,sans-Serif" font-size="14.00" fill="#000000">mse = 0.114</text>
<text text-anchor="middle" x="190.6006" y="-25" font-family="Helvetica,sans-Serif" font-size="14.00" fill="#000000">samples = 1602</text>
<text text-anchor="middle" x="190.6006" y="-8.2" font-family="Helvetica,sans-Serif" font-size="14.00" fill="#000000">value = 0.759</text>
</g>
<!-- 1&#45;&gt;3 -->
<g id="edge3" class="edge">
<title>1&#45;&gt;3</title>
<path fill="none" stroke="#000000" d="M190.6006,-94.3048C190.6006,-85.9126 190.6006,-76.9946 190.6006,-68.5382"/>
<polygon fill="#000000" stroke="#000000" points="194.1007,-68.5186 190.6006,-58.5186 187.1007,-68.5187 194.1007,-68.5186"/>
</g>
<!-- 5 -->
<g id="node6" class="node">
<title>5</title>
<path fill="#e58139" fill-opacity="0.643137" stroke="#000000" d="M369.302,-58.6014C369.302,-58.6014 277.8992,-58.6014 277.8992,-58.6014 271.8992,-58.6014 265.8992,-52.6014 265.8992,-46.6014 265.8992,-46.6014 265.8992,-11.7986 265.8992,-11.7986 265.8992,-5.7986 271.8992,.2014 277.8992,.2014 277.8992,.2014 369.302,.2014 369.302,.2014 375.302,.2014 381.302,-5.7986 381.302,-11.7986 381.302,-11.7986 381.302,-46.6014 381.302,-46.6014 381.302,-52.6014 375.302,-58.6014 369.302,-58.6014"/>
<text text-anchor="middle" x="323.6006" y="-41.8" font-family="Helvetica,sans-Serif" font-size="14.00" fill="#000000">mse = 0.122</text>
<text text-anchor="middle" x="323.6006" y="-25" font-family="Helvetica,sans-Serif" font-size="14.00" fill="#000000">samples = 1833</text>
<text text-anchor="middle" x="323.6006" y="-8.2" font-family="Helvetica,sans-Serif" font-size="14.00" fill="#000000">value = 1.219</text>
</g>
<!-- 4&#45;&gt;5 -->
<g id="edge5" class="edge">
<title>4&#45;&gt;5</title>
<path fill="none" stroke="#000000" d="M323.6006,-94.3048C323.6006,-85.9126 323.6006,-76.9946 323.6006,-68.5382"/>
<polygon fill="#000000" stroke="#000000" points="327.1007,-68.5186 323.6006,-58.5186 320.1007,-68.5187 327.1007,-68.5186"/>
</g>
<!-- 6 -->
<g id="node7" class="node">
<title>6</title>
<path fill="#e58139" stroke="#000000" d="M502.302,-58.6014C502.302,-58.6014 410.8992,-58.6014 410.8992,-58.6014 404.8992,-58.6014 398.8992,-52.6014 398.8992,-46.6014 398.8992,-46.6014 398.8992,-11.7986 398.8992,-11.7986 398.8992,-5.7986 404.8992,.2014 410.8992,.2014 410.8992,.2014 502.302,.2014 502.302,.2014 508.302,.2014 514.302,-5.7986 514.302,-11.7986 514.302,-11.7986 514.302,-46.6014 514.302,-46.6014 514.302,-52.6014 508.302,-58.6014 502.302,-58.6014"/>
<text text-anchor="middle" x="456.6006" y="-41.8" font-family="Helvetica,sans-Serif" font-size="14.00" fill="#000000">mse = 0.129</text>
<text text-anchor="middle" x="456.6006" y="-25" font-family="Helvetica,sans-Serif" font-size="14.00" fill="#000000">samples = 1988</text>
<text text-anchor="middle" x="456.6006" y="-8.2" font-family="Helvetica,sans-Serif" font-size="14.00" fill="#000000">value = 1.747</text>
</g>
<!-- 4&#45;&gt;6 -->
<g id="edge6" class="edge">
<title>4&#45;&gt;6</title>
<path fill="none" stroke="#000000" d="M372.3697,-94.3048C384.8977,-84.6215 398.3314,-74.2382 410.7083,-64.6717"/>
<polygon fill="#000000" stroke="#000000" points="412.8973,-67.4034 418.6689,-58.5186 408.6164,-61.8649 412.8973,-67.4034"/>
</g>
</g>
</svg>
